<?xml version="1.0" encoding="UTF-8"?>
<svg id="Ebene_1" data-name="Ebene 1" xmlns="http://www.w3.org/2000/svg" viewBox="0 0 278.08 258.66">
  <defs>
    <style>
      .cls-1 {
        fill: #363636;
      }
    </style>
  </defs>
  <path class="cls-1" d="m134.9,50.45c12.09-9.59,25.88-62.65,53.15-47.87,27.14,14.72-16.76,84.28,0,97.25,19.67,15.22,43.09-63.21,80.3-11.31,40.46,56.43-58.05,37.35-62.24,53.87-5.07,20.03,69.12,51.73,36.11,74.33-12.98,8.89-49.42-24.71-59.74-17.57-8.88,6.14,58.62,50.09-11.19,59.25-37.44,4.91-36.75-63.23-48.7-65.68-8.3-1.7-47.91,69.12-78.01,15.35-32.56-58.16,59.37-49.11,52.6-68.74C92.54,125.87-2.62,152.12.06,108.34c2.11-34.57,101.94,2.83,109.06-9.19C117.45,85.08,4.71,36.2,66.73,7.05c51-23.97,60.45,49.53,68.17,43.41Z"/>
</svg>