<?xml version="1.0" encoding="UTF-8"?><svg id="Ebene_11" xmlns="http://www.w3.org/2000/svg" xmlns:xlink="http://www.w3.org/1999/xlink" viewBox="0 0 1790 1022"><defs><style>.cls-1{fill:none;}.cls-1,.cls-2,.cls-3,.cls-4{stroke-width:0px;}.cls-2{fill:url(#streifen_quer);}.cls-3{fill:#ff7bac;}.cls-4{fill:#ed1c24;}</style><pattern id="streifen_quer" x="0" y="0" width="130" height="120" patternTransform="translate(-1521 -1581.3) scale(.8)" patternUnits="userSpaceOnUse" viewBox="0 0 130 120"><rect class="cls-1" y="0" width="130" height="120"/><rect class="cls-4" x="0" y="106" width="130" height="4"/><rect class="cls-4" x="0" y="82" width="130" height="4"/><rect class="cls-4" x="0" y="58" width="130" height="4"/><rect class="cls-4" x="0" y="34" width="130" height="4"/><rect class="cls-4" x="0" y="10" width="130" height="4"/></pattern></defs><path class="cls-3" d="M838.3,614c3.8-32.4.9-60.6,13.8-64.5,9.8-3,16.9-4.2,20.7,2.6,6,10.6,4.3,40.2,4.7,60.1.6,32.7,3.8,60.9-8.8,61.1-4.7,0-21.3,3.4-26.8-.7-9.4-7-5.9-38.7-3.6-58.6Z"/><path class="cls-2" d="M838.3,614c3.8-32.4.9-60.6,13.8-64.5,9.8-3,16.9-4.2,20.7,2.6,6,10.6,4.3,40.2,4.7,60.1.6,32.7,3.8,60.9-8.8,61.1-4.7,0-21.3,3.4-26.8-.7-9.4-7-5.9-38.7-3.6-58.6Z"/></svg>