<?xml version="1.0" encoding="UTF-8"?><svg id="Ebene_3" xmlns="http://www.w3.org/2000/svg" viewBox="0 0 1790 1022"><defs><style>.cls-1{fill:#ff7bac;}.cls-1,.cls-2{stroke-width:0px;}.cls-2{fill:#ffabac;}</style></defs><path class="cls-2" d="M1145.1,480.7l-18-116.6c0-.6-.2-1.2-.4-1.7l-29.1-72.7c-.1-.3-.2-.5-.4-.8l-39.1-70c-.1-.2-.2-.4-.4-.6l-30.5-43.1c-.8-1.2-66.3-65-67.9-65.9-6.5-4-23-10.7-33.7-10.7s-86.6-1.9-115.4,5.9c-20.5,5.5-59.1,18.3-68.7,27-6.2,5.7,29.7,25.6,32.9,29.6,9.9,12.3,23.7-7.4,57.5-16.4,17.7-4.8,85.8-8.2,93.7-8.2s12.3,1,17.9,2.1l67.7,45.2c2,1.3,3.7,3.2,4.7,5.4l18.9,37.8,37.2,67.2c.4.7.6,1.5.8,2.3l19.4,129.8c.1.8.4,1.7.8,2.4l15,14.5c.2.2,1.4,1.4,1.6,1.6,2.4,2.7,3.5,6,3.7,9.6l.9,15.6c.2,2.9,0,8.3-4.6,11.8-3.3,2.5,8.8-1.7,9-1.6l11.5,2.5c4.7,1.7,15.4,3.3,14.8-1.6Z"/><path class="cls-1" d="M755.3,221.3c-12.1,32.8-24.8,62.9-42.5,56.4-6.3-2.3-31.7-9.7-34.5-17.3-5.1-13.8,5.1-41.6,12.9-62.8s13.8-32.5,24.8-40.8,16.1-18.6,24-15.7c7.7,2.9,32,16.2,34.4,26.7s-12.2,35-19,53.4Z"/><path class="cls-1" d="M1148.6,573.2c-4.1,37.7-1.8,77.5-10.9,92.4s-17.2-2.6-20.8-3c-3.4-.4-9.3-2.4-10.4-9.3-2.9-18.3,5.1-57.7,10.4-95,4.5-31.9-19-58.4-11.2-75.1s31.3-7.3,35.3-7.4c7.1-.2,8.9,10.3,9.9,27.1s.8,42.9-2.2,70.3Z"/><path class="cls-2" d="M632.7,460.4l43-181.9c1.3-5.6,5.8-9.4,9.5-8.1l32.9,12.3c3.3,1.2,4.6,6.1,3,11l-57.9,177.2c-.7,2.2-1.9,4-3.3,5.3l-23.2,89.5c-.6,2.2-.9,4.5-1,6.8s-.7,6.4-.8,8.7l-4,83.5c-.3,6.7-4.6,13.6-11.2,12.4l-23-2.5c-6.2-1.1-13.7-16-12.3-22.2l21-75.1c.5-2.3,1.4-6,2.9-9.2s2.1-5.1,2.7-7.8l21.6-100Z"/></svg>