<?xml version="1.0" encoding="UTF-8"?><svg id="Ebene_4" xmlns="http://www.w3.org/2000/svg" xmlns:xlink="http://www.w3.org/1999/xlink" viewBox="0 0 1790 1022"><defs><style>.cls-1{fill:none;}.cls-1,.cls-2,.cls-3,.cls-4{stroke-width:0px;}.cls-2{fill:url(#streifen);}.cls-3{fill:#ed1c24;}.cls-4{fill:#ffabac;}</style><pattern id="streifen" x="0" y="0" width="25" height="183" patternTransform="translate(-1389.5 -1583.8) scale(.8)" patternUnits="userSpaceOnUse" viewBox="0 0 25 183"><rect class="cls-1" width="25" height="183"/><rect class="cls-3" x="21.5" y="0" width="2" height="183"/><rect class="cls-3" x="16.5" y="0" width="2" height="183"/><rect class="cls-3" x="11.5" y="0" width="2" height="183"/><rect class="cls-3" x="6.5" y="0" width="2" height="183"/><rect class="cls-3" x="1.5" y="0" width="2" height="183"/></pattern></defs><path class="cls-4" d="M805,779.5c0,.8.1,1.5.3,2.3,8.5,45,45.6,75.8,83.3,69.1,38-6.8,62.2-49.2,54-94.8-.7-4.2-1.7-8.2-2.9-12.1s-.8-3.6-.8-5.5l1.4-130.7c0-6.4-3.3-12.4-8.8-15.8l-11.4-6.9c-12.1-7.3-27.5,1.4-27.6,15.5v11.3c0,9.5-7.5,17.4-17,18l-14.7,1c-11.4.8-20.7-9.1-19.2-20.5l13.3-145.3,18.7-98.3c.7-5,3-11.4.2-15.1s-11.5-3.3-14.6-3.3-1.6,0-2.4-.2c-4.5-.7-10.2-2.1-13.4.2-3.9,2.8-5,8.2-5.7,13.3l-3.3,50.8-12.3,84.7-25.8,136.2c-.2,1.3-.3,2.6-.2,3.9l8.9,142.3Z"/><path class="cls-2" d="M805,779.5c0,.8.1,1.5.3,2.3,8.5,45,45.6,75.8,83.3,69.1,38-6.8,62.2-49.2,54-94.8-.7-4.2-1.7-8.2-2.9-12.1s-.8-3.6-.8-5.5l1.4-130.7c0-6.4-3.3-12.4-8.8-15.8l-11.4-6.9c-12.1-7.3-27.5,1.4-27.6,15.5v11.3c0,9.5-7.5,17.4-17,18l-14.7,1c-11.4.8-20.7-9.1-19.2-20.5l13.3-145.3,18.7-98.3c.7-5,3-11.4.2-15.1s-11.5-3.3-14.6-3.3-1.6,0-2.4-.2c-4.5-.7-10.2-2.1-13.4.2-3.9,2.8-5,8.2-5.7,13.3l-3.3,50.8-12.3,84.7-25.8,136.2c-.2,1.3-.3,2.6-.2,3.9l8.9,142.3Z"/></svg>