<?xml version="1.0" encoding="UTF-8"?><svg id="Ebene_5" xmlns="http://www.w3.org/2000/svg" viewBox="0 0 1790 1022"><defs><style>.cls-1,.cls-2,.cls-3,.cls-4,.cls-5{stroke-width:0px;}.cls-2{fill:#603813;}.cls-3{fill:#ffefcc;}.cls-4{fill:red;}.cls-5{fill:#0071bc;}</style></defs><path class="cls-4" d="M778.7,695.5l-71.6-5.2c-2.8-.3-11.3-2.5-14.1-2.5l-89.7-1.6c-4.4,0-8.6-2.3-11.1-5.9-4.5-6.5-8.9-12.8-12.5-18.3-9.6-14.7-11.2-32.9-13.3-42.7-.3-1.3-.4-2.7-.2-4l9-108c0-.7.2-1.4.4-2,.8-2.9,3.2-11.6,4.1-16.8,4.6-26.1,6.2-43.3-5.7-45.4-11.9-2-32.6,11.9-37.3,38.1-1.4,7.7-3.2,21.8-3.2,21.8l-15.4,179.1v229.6c0,7.7,6.2,13.9,13.9,13.9h129.7c7,0,12.9-5.2,13.8-12.2l9.4-76.3c1-8.4,8.3-14.8,17.1-15.2s.9,0,1.4,0l50.2,3.6c10.6,0,24-18.1,24.7-28.7s0-1.1.1-1.6l13.1-83.7c1.2-7.6-4-15-11.7-15.9-.3,0-.6,0-.9,0Z"/><path class="cls-1" d="M534.4,514.4s3.3-20.5,5.8-29.6c6.8-25,21.6-39.8,32.9-37.8,11.3,2,9,28.8,2.5,53.4-1.2,4.5-2.6,29.1-5.8,57.5-3,26.5-4.4,53.7-4.8,62.7s0,4,.5,5.9c2.3,9.7,5.8,26.2,14.6,40.1,3,4.7,6.6,10,10.4,15.5s9,8.2,15.1,8.5l30.8,1.6,53.4,1.2c1.6.1,9.4,2,15.2,3.7s1.7.3,2.6.3l11.1-.2c2.6-.3,5.3-.3,7.9-.2l48.3,2.6c3.2.2,5.8,6.2,7,11.2s.9,14.1.7,16.4c0,0,.8,21-5.8,49.3-5.5,23.8-18.1,46-22.2,46h-61.8c-6,0-11,4.5-11.8,10.4l-8.7,83.2c-.4,3.3-3.2,5.8-6.6,5.8l-136,1.6c-4.7,0-8.5-3.8-8.5-8.5v-229l13.1-171.8Z"/><path class="cls-4" d="M1189,429.5c-.2-1.6-.4-3.3-.4-4.9v-151l-7.4-175-217.8-4.2-127.4,1.6h0c0,2.7,2.2,4.9,4.9,5l118.3.8c3.6,0,10.7.8,13,3.7l161.2,172.2,13.1,141.4c-2.1,8.2-5.8,23.3-5.8,33.7,0,29,16.9,47.7,28.4,47.7s21-23.5,21-52.5-.5-12.7-1.3-18.5Z"/><path class="cls-1" d="M1184.1,424.5c-.3-1.8-.4-3.7-.4-5.5v-145.3s-6.8-154.7-6.8-154.7c-.4-8.2-7.1-14.8-15.3-14.9,0,0-149.5-3.2-152.5-4.5s-26.1-3.5-29,3.9c-2.1,5.3,1.5,12,8.6,17.4s14.1,12.8,19,20.9l107.4,178.9c.9,1.5,1.6,3,2.1,4.7l27.7,84.8c1.3,3,1.6,6.2.9,9.4-1.4,6.8-2.2,14.6-2.2,22.7,0,28,9.4,50.8,21,50.8s21-22.7,21-50.8-.5-12.3-1.3-17.9Z"/><path class="cls-2" d="M670,191.4c-15,16.2-34,6.9-45-3.4s-5-20.3,2.3-31.1c4.9-7.4,5-16.2,9.9-21.4,15-16.2,31.2-16.3,42.2-6.1,11.1,10.3,5.7,45.8-9.3,62Z"/><path class="cls-2" d="M597.7,421.6c-4.5,21.1-12.3,27.8-27.1,24.7-5.9-1.3-7.4-8.8-12.3-9.9-7.4-1.6-9.4-10.9-4.9-23.8,7.1-20.4,2.4-36.9,17.3-33.7s31.6,21.7,27.1,42.7Z"/><path class="cls-4" d="M1076.5,709.4c-6.2,29-24.2,40.7-43.4,36.6-19.2-4.1-23.2-18.4-16.9-47.4,3.2-15,10.3-50.1,19-58.3,8.2-7.7,17.8-4.7,27.1-2.7,19.2,4.1,20.5,42.8,14.2,71.8Z"/><path class="cls-2" d="M1071.8,710c-6.5,25.1-22.6,34.7-39.2,30.4s-19.6-16.9-13-42.1c3.4-12.9,10.8-43.4,18.7-50.2,7.4-6.4,15.7-3.5,23.8-1.4,16.6,4.3,16.3,38.1,9.8,63.3Z"/><path class="cls-4" d="M966.3,152.9c15.9,24.6,15.4,47.4-2,58.6s-47.9,6.6-63.8-18c-7.3-11.3-12.5-20.2-11-30.3,1.7-11.9,11.6-24.5,21-30.5,17.4-11.3,40.1-4.3,55.9,20.2Z"/><path class="cls-2" d="M958.3,151.8c16.8,18.5,19.6,37.8,6.5,49.7-13.1,11.9-39.5,12.3-56.3-6.2-7.7-8.5-13.4-15.3-13.6-24-.2-10.2,6.3-22.2,13.4-28.7,13.1-11.9,33.1-9.3,49.9,9.2Z"/><polygon class="cls-5" points="693.1 501.2 595.7 439.9 606.7 415 711.1 414.8 693.1 501.2"/><polygon class="cls-3" points="694.7 500.5 598.5 437.2 610 412.5 714.4 414.5 694.7 500.5"/></svg>