<?xml version="1.0" encoding="UTF-8"?><svg id="Ebene_10" xmlns="http://www.w3.org/2000/svg" viewBox="0 0 1790 1022"><defs><style>.cls-1,.cls-2,.cls-3,.cls-4{stroke-width:0px;}.cls-2{fill:#603813;}.cls-3{fill:#ff0;}.cls-4{fill:#e6e6e6;}</style></defs><path class="cls-2" d="M970,455.3c9.2,32-1.9,80.3,4.9,105.2,6.6,23.8,4.6,38-9,41.9-28.3,8.1-80.5-41.9-94.5-105.2-13.8-62.6-12.7-122.6,15.6-130.7,28.3-8.1,65.3,27.1,83,88.8Z"/><rect class="cls-3" x="944.4" y="470.9" width="6.2" height="308.2" transform="translate(-11.3 17.5) rotate(-1.1)"/><path class="cls-4" d="M908.8,463.5c-3.8,8.6-11.9,14-19.3,10.6-7.4-3.3-8.8-14.4-4.9-23,3.8-8.6,10.3-12.6,17.7-9.2,7.4,3.3,10.4,13,6.5,21.6Z"/><path class="cls-4" d="M951.3,453.3c1.5,4.4,3.7,9.9,3.1,13.5s-4.5,6.1-7.6,7.2c-5.8,2-12.9-3.9-14.5-13.8s0-18.1,1.6-19.7c4.3-4.3,14.2,3.4,17.5,12.8Z"/><path class="cls-1" d="M951.9,465.5c0,1.9-2.2,2.4-3.3,3.7s-2.1,4.1-4.5,4.1-1.6,0-2.9-.8c-2.1-1.4-4.9-4.3-4.9-7s-.5-4.4.8-6.2,5.1-3.3,7.4-3.3c4.3,0,7.4,5.1,7.4,9.5Z"/><path class="cls-1" d="M902.4,459c0,3.5-2.1,6.3-4.7,6.3s-3.3-2.5-3.3-5.9.8-5.9,3.3-6.7,4.7,2.8,4.7,6.3Z"/><rect class="cls-3" x="884.6" y="460.8" width="5.7" height="212.6" transform="translate(1751 1169.9) rotate(-177.7)"/></svg>