<?xml version="1.0" encoding="UTF-8"?><svg id="Ebene_8" xmlns="http://www.w3.org/2000/svg" viewBox="0 0 1790 1022"><defs><style>.cls-1,.cls-2,.cls-3,.cls-4,.cls-5{stroke-width:0px;}.cls-2{fill:#603813;}.cls-3{fill:#ff0;}.cls-4{fill:#ffabac;}.cls-5{fill:blue;}</style></defs><path class="cls-4" d="M1044.8,877.7c1.9-.4,2.4-6.7,1.5-8.4l-24.5-49c-1.7-3.4-6.2-4.4-9.2-2.1l-21.1,16.6c0,0-.2.1-.3.2-1.6.9-5.9,3.5-7,5.1-2.8,3.7-4,12.9-5.1,20.3s-2.5,19.6,0,23c2.5,3.3,9,3.9,13.1,2.5"/><path class="cls-5" d="M1119.3,725.8c-3.8,1.5-6,2-11.2.7s-12.2-3.5-13.1-7.4c-.9-3.5,0-9.6.4-13.3.5-4.5,1.1-9.8,1.7-15.1.5-4.6,1.4-7.8,1.9-11.9.9-6,.6-17.5,8.8-17,4.1,0,10.8,2.2,16,4,4.9,1.9,11.2,3.8,12.8,9.3.9,3.9-.2,7.8-1.3,12.1-.9,3.2-2,6.9-3,10.6-1.3,4.6-2.7,9.2-3.9,13.3-2.4,7.3-3.6,12-9,14.5h-.1Z"/><path class="cls-5" d="M1098,855l-5.4,5.3c-2,2.4-5.8,2.6-8.7,3.7-3.4,1.3-7.5,2.6-8.9,3l-18.3,4.1c-2.2,1-4.8,0-5.8-2.1l-26.7-56.2c-1.1-2.4,2.5-9.8,4.4-11.7l26.8-26.4c1.5-1.4,3.9-1,4.8.9l37.9,72c1.1,2,2,6.5-.1,7.4Z"/><path class="cls-1" d="M1130.3,785.7c-3.5,27.2-7.2,86.4-27.9,75.8s-16.5-35-30.1-54.1c-10.6-14.9-21.5-32.2-15.5-44.1,12.5-24.4,26-51,47-48.4,6.3.8,21.2,4.2,23.4,9.9,5,13.4,5.4,41.8,3,60.8Z"/><path class="cls-2" d="M1124.8,783.6c-2.9,22.3-5.8,70.7-23.3,62-8.9-4.4-14-28.7-25.5-44.4-8.9-12.2-18.2-26.5-13.1-36.2,10.5-19.9,21.8-41.7,39.4-39.4s17.9,3.5,19.7,8.2c4.2,11,4.7,34.2,2.7,49.8Z"/><path class="cls-3" d="M1112.2,779.1c0,14-1.6,34.5-10.7,29.6-3.6-2-7.9-5.7-14-11.5-7.8-7.4-16.4-10.7-13.1-18.1s9-14,13.1-19.7c5.4-7.6,10.3-15.5,15.6-14.8,9.2,1.3,9,21.7,9,34.5Z"/></svg>