<?xml version="1.0" encoding="UTF-8"?><svg id="Ebene_9" xmlns="http://www.w3.org/2000/svg" xmlns:xlink="http://www.w3.org/1999/xlink" viewBox="0 0 1790 1022"><defs><style>.cls-1{fill:url(#punkte);}.cls-1,.cls-2,.cls-3,.cls-4,.cls-5,.cls-6,.cls-7{stroke-width:0px;}.cls-2{fill:none;}.cls-3{fill:url(#punkte-2);}.cls-5{fill:#bdccd4;}.cls-6{fill:#ff0;}.cls-7{fill:blue;}</style><pattern id="punkte" x="0" y="0" width="86" height="86" patternTransform="translate(-1490.9 -1461.3) scale(.8)" patternUnits="userSpaceOnUse" viewBox="0 0 86 86"><rect class="cls-2" width="86" height="86"/><circle class="cls-6" cx="64.5" cy="86" r="6.5"/><circle class="cls-6" cx="21.5" cy="86" r="6.5"/><circle class="cls-6" cx="86" cy="43" r="6.5"/><circle class="cls-6" cx="43" cy="43" r="6.5"/><circle class="cls-6" cx="0" cy="43" r="6.5"/><circle class="cls-6" cx="64.5" cy="0" r="6.5"/><circle class="cls-6" cx="21.5" cy="0" r="6.5"/></pattern><pattern id="punkte-2" patternTransform="translate(-1476.6 -1508.1) scale(.8)" xlink:href="#punkte"/></defs><path class="cls-7" d="M786.7,538.3l37.9-159.4c0-.3.2-.5.3-.8l17.7-30c.3-.5.8-.9,1.4-1s2.7-.7,3.5-1.1c1.6-.8,1.9-.4,2.2-.3l64.9,12c.5,0,.9.2,1.4.4l90.1,43.8.6.3c1.1.5,58.5,62.7,58.5,62.7.9,1,2.5.9,3.2-.2l23.6-34.6c.7-1,.4-2.4-.7-3l-69.3-38.6c-.7-.4-102.7-49.1-103-49.3l-64.3-21c-.4-.1-.7-.2-1.1-.2-2.3-.3-10.5-1-15.5.4-10.5,3-17.1,20-17.5,20.9l-13.3,33.1-35.7,159.2c-.3,1.3-.6,2.6-1,3.8l-13,54.8c-.3,1.1-.6,2.1-.9,3.2l-12.6,35.8c-.4,1.6.6,3.2,2.2,3.5l37.2,7.7"/><path class="cls-5" d="M789.2,665.2c0,14.3,2.1,25.9-14,25.9s-44.4,1.1-44.4-13.1,4.1-31.4,10.7-36.2c5-3.6,11.5-2.5,18.5-2.5s19.7,1.6,25.1,7.4c4.1,4.5,4.1,12.3,4.1,18.5Z"/><path class="cls-4" d="M1106.4,449.5c8.2,11.2,9,25.5,0,30.4-8.8,4.8-16.5,8.7-24.7-2.5-8.2-11.2-6.6-27.1,1.6-32.9,8.2-5.7,14.8-6.2,23,4.9Z"/><path class="cls-7" d="M681.5,889.2c-1.6,17.3,6.6,24.7,28.8,27.9l200.1,9.2v-.3c13.5.3,31.6-9.1,46.6-25.4,13.9-15.2,21.5-48.6,21.7-50.1l36.6-209.7c.5-2.7,1.4-5.2,2.7-7.6l41.3-65.8c.2-.3.4-.6.6-.9l32.6-58.7c6.8-12.2-6-21.4-18.7-27.2l-1.4-.7c-12.7-5.8-26-11.5-30.8,1.6l-50.1,143.5c-.3.8-.6,1.7-.8,2.6l-.9,3.5-44.4,204.6c-4.9,19.7-15.4,25.1-29.6,23.2l-189.8-33.1c-7.4-1.6-19.8-1.3-22.6-1.4-7.9-.2-14.7,5.4-16.1,13.2l-5.6,51.5Z"/><path class="cls-1" d="M682.1,889.2c-1.6,17.3,6.6,24.7,28.8,27.9l200.1,9.2v-.3c13.5.3,31.6-9.1,46.6-25.4,13.9-15.2,21.5-48.6,21.7-50.1l36.6-209.7c.5-2.7,1.4-5.2,2.7-7.6l41.3-65.8c.2-.3.4-.6.6-.9l32.6-58.7c6.8-12.2-6-21.4-18.7-27.2l-1.4-.7c-12.7-5.8-26-11.5-30.8,1.6l-50.1,143.5c-.3.8-.6,1.7-.8,2.6l-.9,3.5-44.4,204.6c-4.9,19.7-15.4,25.1-29.6,23.2l-189.8-33.1c-7.4-1.6-19.8-1.3-22.6-1.4-7.9-.2-14.7,5.4-16.1,13.2l-5.6,51.5Z"/><path class="cls-3" d="M786.7,538.3l37.9-159.4c0-.3.2-.5.3-.8l17.7-30c.3-.5.8-.9,1.4-1s2.7-.7,3.5-1.1c1.6-.8,1.9-.4,2.2-.3l64.9,12c.5,0,.9.2,1.4.4l90.1,43.8.6.3c1.1.5,58.5,62.7,58.5,62.7.9,1,2.5.9,3.2-.2l23.6-34.6c.7-1,.4-2.4-.7-3l-69.3-38.6c-.7-.4-102.7-49.1-103-49.3l-64.3-21c-.4-.1-.7-.2-1.1-.2-2.3-.3-10.5-1-15.5.4-10.5,3-17.1,20-17.5,20.9l-13.3,33.1-35.7,159.2c-.3,1.3-.6,2.6-1,3.8l-13,54.8c-.3,1.1-.6,2.1-.9,3.2l-12.6,35.8c-.4,1.6.6,3.2,2.2,3.5l37.2,7.7"/></svg>