<?xml version="1.0" encoding="UTF-8"?><svg id="Ebene_2" xmlns="http://www.w3.org/2000/svg" viewBox="0 0 1790 1022"><defs><style>.cls-1{fill:#22b573;}.cls-1,.cls-2,.cls-3{stroke-width:0px;}.cls-2{fill:#ffefcc;}.cls-3{fill:#ffdbde;}</style></defs><path class="cls-2" d="M1167.3,516.9c0,204.9-165.5,370.7-302.9,370.7s-231.1-206.9-232.2-208.7c-26.5-43.7,8.2-111.7,8.2-169.3s35-82.8,45.2-123.3,43.6-115.1,52.6-140.5c34.1-96.1,65.1-103.6,147.1-103.6s58.6,4.4,84.7,21.4c16.4,10.7,38.4,21.8,45.2,40.3,16.4,44.4,102.4,112.8,119.2,170.9,14.8,51,32.9,81.4,32.9,142.2Z"/><path class="cls-3" d="M1091,548.3c16.7,106.9-7.8,205.9-71.9,253.1-66.1,48.7-123.8,93.7-156.3-5.1-31.4-95.6-43.3-400.2,31.8-412,75.1-11.8,179.6,57.1,196.4,164Z"/><polyline class="cls-1" points="867.2 544.5 847.7 548.9 853.9 454.7"/></svg>