<?xml version="1.0" encoding="UTF-8"?>


<svg id="Ebene_1" xmlns="http://www.w3.org/2000/svg" viewBox="0 0 319.87 325.71"><path d="m319.87,98.07c-1.38,45.69-17.54,88.73-43.01,128.74-17.34,27.24-36.56,52.91-62.01,73.18-40.85,32.54-84.58,34.59-126.66,3.91-36.2-26.4-64.45-60-81.6-102.05-2.81-6.88-4.98-13.91-5.86-21.35-3.97-33.38,8.21-54.59,39.14-68.21,16.3-7.18,33.53-10.37,50.99-13.15,36.96-5.87,66.65-25.72,94.03-49.91,15.06-13.31,29.22-27.7,46.03-38.98,22.23-14.91,39.4-13.7,59.17,4.4,18.95,17.35,29.85,47.05,29.78,83.4Z"/></svg>