<?xml version="1.0" encoding="UTF-8"?>

<svg id="Ebene_1" xmlns="http://www.w3.org/2000/svg" viewBox="0 0 371.26 354.39"><path d="m271.09,75.11c.01,41.89,24.02,67.38,57.11,84.98,20.58,10.95,34.19,26.24,40.46,48.97,12.95,46.94-24.24,95.29-71.43,93.2-15.79-.7-31.47-1.68-47.11-4.53-14.83-2.71-28.01,1.9-39.26,12.26-9.09,8.37-17.28,17.54-24.53,27.69-15.53,21.74-33.25,22.29-50.88,1.53-6.43-7.57-12.12-15.85-19.93-22.05-16.08-12.75-33.47-17.42-53.65-11.87-29.36,8.08-54.89-5.44-59.71-31.17-4.14-22.07-2.98-44.43,9.72-62.95,22.44-32.72,22.48-65.65,6.11-100.69-6.85-14.67-9.75-30.24-3.43-46.22,5.39-13.63,13.14-18.94,27.43-16.93,16.03,2.26,31.92,5.59,47.9,8.25,24.96,4.16,44.4-5.8,59.46-25.69C170.09,2.47,193.1-5.97,221.19,4.1c32.17,11.53,49.85,36.61,49.9,71.02Z"/></svg>