<?xml version="1.0" encoding="UTF-8"?>

<svg id="Ebene_1" xmlns="http://www.w3.org/2000/svg" viewBox="0 0 302.19 378.23"><path d="m302.19,118.08c-.17,12.63-2.41,25.13-9.33,35.55-15.69,23.61-24.2,49.34-24.2,77.46,0,43.27-23.26,75.19-50.32,105.1-16.43,18.17-34.94,34.2-59.65,40.39-20.11,5.04-34.59-1.47-44.3-19.71-2.68-5.04-4.8-10.51-6.29-16.02-6.91-25.48-21.42-44.31-46.16-54.75-17.67-7.46-24.57-21.97-25.2-40.19-.44-12.84-.46-25.7-.97-38.54-.96-24.22-11.53-45.1-22.82-65.82C-21.23,78.91,15.38,8.22,86.31.53c23.49-2.54,45.63,3.91,62.01,21.17,15.72,16.57,33.74,23.3,55.83,22.11,8.84-.47,17.73-.26,26.59,0,40.27,1.19,71.69,33.92,71.45,74.26Z"/></svg>