<?xml version="1.0" encoding="UTF-8"?>


<svg id="Ebene_1" xmlns="http://www.w3.org/2000/svg" viewBox="0 0 325.37 318.6"><path d="m226.97,318.57c-12.45.34-26.13-2.8-39.09-8.38-24.89-10.72-49.11-11.21-74.93-1.46-34.55,13.05-71.72.93-94.83-28.06-22.32-28-24.65-63.4-3.45-95.22,14.46-21.7,16.12-43.9,11.73-68.34C16.55,62.2,44.44,16.74,95.86,3.38c26.05-6.77,51.12-3.19,74.97,9.1,7.74,3.99,15.48,8.01,23,12.4,15.14,8.84,30.85,10.48,48.15,7.25,21.81-4.06,40.67,3.43,54.56,20.79,13.64,17.05,16.89,36.44,7.47,56.54-7.9,16.85-6.63,32.74.79,49.25,7.11,15.82,16.1,30.84,19.06,48.47,10.24,60.88-33.26,112.09-96.91,111.39Z"/></svg>