<?xml version="1.0" encoding="UTF-8"?>

<svg id="Ebene_1" xmlns="http://www.w3.org/2000/svg" viewBox="0 0 338.95 258.33"><path d="m0,139.6C.43,86.15,31.9,53.82,87.04,50.03c14.24-.98,28.24.3,42.22,3.04,17.95,3.52,33.22-1.2,44.5-16.1,31.87-42.11,94.33-49.46,135.35-15.76,11.56,9.5,21.45,20.42,27.22,34.49,5.5,13.42,2.46,21.77-9.93,29.29-5.89,3.57-12.28,5.93-18.91,6.87-16.43,2.32-27.5,11.49-32.32,26.72-4.93,15.58-14.54,23.01-30.53,24.58-11.14,1.1-22.15,3.84-33.1,6.4-18.81,4.39-30.75,16.8-37.55,34.31-4.06,10.46-6.78,21.44-10.87,31.89-7.97,20.33-20.16,36.58-43.08,41.65-8.75,1.93-17.31.59-25.83-1.16C39.63,245.04-.44,195.38,0,139.6Z"/></svg>